<svg height="512" viewBox="0 0 512 512" width="512" xmlns="http://www.w3.org/2000/svg"><g id="BULINE"><circle cx="256" cy="256" fill="#7cc8fb" r="256"/></g><g id="Icons"><path d="m87.46 87.11h337.08v337.08h-337.08z" fill="#b0d46c" transform="matrix(.707 .707 -.707 .707 255.75 -106.14)"/><path d="m80.35 255.65 207 207-31.35 31.35-238.35-238.35 238.35-238.35 31.35 31.35z" fill="#9fbf58"/><circle cx="383.45" cy="328.9" fill="#d1e2a1" r="15.69"/><circle cx="363.52" cy="353.41" fill="#d1e2a1" r="9.53"/><rect fill="#f7bb38" height="108.1" rx="14.41" transform="matrix(.739 -.674 .674 .739 -105.42 239.26)" width="431.42" x="40.29" y="201.6"/><path d="m432.6 193.24-249.32 227.38-13.02-13.02 249.32-227.38z" fill="#9fbf58"/><path d="m164.58 372.2-37.58 34.52-8.68-9.46 3.55-3.26-18.9-20.6-3.55 3.26-8.72-9.46 22.58-20.73 8.69 9.46-3.76 3.44 18.91 20.63 9.35-8.58-5.82-6.34 9.43-8.65z" fill="#27273d"/><path d="m190.09 348.78-22.53 20.68-8.68-9.46 3.64-3.34-18.9-20.6-3.62 3.34-8.68-9.46 22.53-20.68 8.68 9.46-3.63 3.28 18.9 20.6 3.61-3.31z" fill="#27273d"/><path d="m210 330.5-15.3 14.06-8.7-9.47 3-2.79-18.9-20.59-3.1 2.86-8.69-9.46 23.84-21.87 19.85 9.91-8-20.73 23.7-21.75 8.68 9.46-3.1 2.84 18.91 20.6 3.18-2.92 8.68 9.46-20.66 18.89-8.68-9.46 3.15-2.89-20.25-22.08 17 42.49-5.91 5.42-40.49-20.4 20 21.79 3.13-2.87z" fill="#27273d"/><path d="m281 265.37-22.53 20.68-8.68-9.46 3.64-3.34-18.91-20.6-3.65 3.35-8.69-9.46 22.53-20.68 8.69 9.46-3.61 3.31 18.9 20.6 3.61-3.31z" fill="#27273d"/><path d="m316 233.22-22.18 20.37-8.69-9.47 3.41-3.12-18.9-20.6-4.55 4.17 6.6 7.19-7.42 6.8-15.27-16.65 39.18-35.91 15.28 16.65-7.41 6.8-6.6-7.19-4.52 4.15 18.91 20.59 3.49-3.21z" fill="#27273d"/><path d="m367 186.39-37.66 34.61-8.68-9.46 3.07-2.81-18.91-20.6-3.12 2.87-8.7-9.48 37.76-34.65 11.61 12.65-10.37 9.48-2.92-3.18-9 8.24 5.58 6.08 7.84-7.14 7.38 8-7.81 7.17 5.94 6.48 9-8.24-2.92-3.18 10.37-9.52z" fill="#27273d"/><path d="m391.7 163.76-18.38 16.87-8.68-9.46 3.1-2.84-18.91-20.6-3.1 2.84-8.68-9.46 18.95-17.37a77.9 77.9 0 0 1 11.3-8.9 28.13 28.13 0 0 1 10.7-3.84 23.37 23.37 0 0 1 11.89 1.55 26.83 26.83 0 0 1 5.57 2.94 29.43 29.43 0 0 1 5 4.39 27.36 27.36 0 0 1 6.42 11.38 23 23 0 0 1 .43 11.49 24 24 0 0 1 -4.42 9.44 101.37 101.37 0 0 1 -11.19 11.57zm-27.58-30.06 18.88 20.6 1.45-1.33q5.4-5 4.38-9.31a20 20 0 0 0 -5-8.68 27.51 27.51 0 0 0 -5.42-4.54 10 10 0 0 0 -6.13-1.66c-2 .15-4.55 1.62-7.58 4.4z" fill="#27273d"/><g fill="#fff"><path d="m215.7 120.24h-22.6v-13.64h22.6z"/><path d="m221.85 113.81 11.39-.85q.28 7 6.55 7a5.18 5.18 0 0 0 4.06-1.49 5.33 5.33 0 0 0 1.29-3.61q0-5.39-7.18-5.63v-7.13a7.44 7.44 0 0 0 4.18-1.3 4.22 4.22 0 0 0 1.93-3.8 4.36 4.36 0 0 0 -1.27-3.26 4.84 4.84 0 0 0 -3.42-1.21q-4.53 0-4.87 5l-11.91-.64q.39-6.59 5.13-9.84t12.89-3.26q8.7 0 13 3.54a11 11 0 0 1 4.33 8.8 9 9 0 0 1 -1.83 5.57 9.35 9.35 0 0 1 -5 3.42 10.13 10.13 0 0 1 8.39 10.39 11.49 11.49 0 0 1 -5.26 10q-5.25 3.63-13.83 3.64t-13.55-3.77q-4.77-3.71-5.02-11.57z"/><path d="m266.89 106.5q0-10.78 5.6-16.71a17.7 17.7 0 0 1 13.33-6 17.38 17.38 0 0 1 13.52 6.21q5.45 6.13 5.44 16.52 0 10.92-5.63 16.78a17.87 17.87 0 0 1 -13.33 5.89 17.39 17.39 0 0 1 -13.49-6.19q-5.44-6.09-5.44-16.5zm14.34 0q0 8.27 1.23 10.8c.83 1.71 2 2.56 3.42 2.56s2.61-.9 3.39-2.69 1.17-5.31 1.17-10.67q0-8.35-1.23-10.86t-3.39-2.46c-1.39 0-2.5.82-3.32 2.46s-1.27 5.29-1.27 10.86z"/><path d="m240 412.11h-22.6v-13.65h22.6z"/><path d="m245.8 408.78 11.46-.73q1.51 3.61 5.85 3.61a6.8 6.8 0 0 0 4.34-1.39 5.3 5.3 0 0 0 1.71-4.37 5.13 5.13 0 0 0 -1.71-4.27 6.46 6.46 0 0 0 -4.05-1.33 7.78 7.78 0 0 0 -5.95 2.59l-9.59-3.38 1.33-22.92h32.44v11.52h-7.44l-1-2.69h-15.77l-.38 8.74a18.61 18.61 0 0 1 10.09-2.66 18.11 18.11 0 0 1 11.87 3.83 12.83 12.83 0 0 1 4.69 10.51 13.87 13.87 0 0 1 -4.94 10.86q-5 4.33-13.83 4.33-7.78 0-12.89-3.29a13.45 13.45 0 0 1 -6.23-8.96z"/><path d="m291.16 398.37q0-10.8 5.6-16.72a17.73 17.73 0 0 1 13.33-5.95 17.42 17.42 0 0 1 13.52 6.14q5.44 6.15 5.44 16.53 0 10.92-5.63 16.78a17.86 17.86 0 0 1 -13.33 5.85 17.33 17.33 0 0 1 -13.48-6.14q-5.44-6.07-5.45-16.49zm14.34 0q0 8.26 1.24 10.79c.82 1.71 2 2.57 3.41 2.57s2.61-.9 3.39-2.69 1.17-5.31 1.17-10.67q0-8.36-1.23-10.86c-.85-1.65-2-2.47-3.39-2.47s-2.5.82-3.32 2.47-1.27 5.29-1.27 10.86z"/><path d="m374.61 277.53h-22.61v-13.64h22.6z"/><path d="m411.65 286.05h-25.42v-10.05h5.69a75.61 75.61 0 0 1 14.34-25.07h-15.66v6.07h-8.74v-15h35.23v8.42q-9.61 15.85-11.17 25.54h5.73z"/><path d="m425 274.21 11.45-.73q1.53 3.61 5.86 3.61a6.86 6.86 0 0 0 4.34-1.39 5.32 5.32 0 0 0 1.71-4.37 5.15 5.15 0 0 0 -1.71-4.28 6.52 6.52 0 0 0 -4.05-1.33 7.78 7.78 0 0 0 -5.95 2.6l-9.6-3.39 1.37-22.93h32.45v11.52h-7.44l-1-2.69h-15.78l-.38 8.73a18.67 18.67 0 0 1 10.1-2.66 18.06 18.06 0 0 1 11.84 3.84 12.83 12.83 0 0 1 4.68 10.5 13.85 13.85 0 0 1 -4.89 10.88q-5 4.33-13.84 4.34-7.78 0-12.88-3.29a13.44 13.44 0 0 1 -6.28-8.96z"/><path d="m76.28 251.52h-22.6v-13.64h22.6z"/><path d="m110 246.27h9.12l-.42 13.73h-35c0-.89-.07-1.34-.07-1.36a22.66 22.66 0 0 1 2.66-11 23.06 23.06 0 0 1 3.77-5 45.59 45.59 0 0 1 5.85-5 56.28 56.28 0 0 0 7.51-6.2 6.1 6.1 0 0 0 1.68-4 4.46 4.46 0 0 0 -1.14-3.16 4.41 4.41 0 0 0 -3.42-1.24q-4.87 0-4.88 6.17l-11.37-.21c.23-5.05 1.91-8.62 5-10.74a21.15 21.15 0 0 1 11.9-3.13q7.86 0 12.73 3.61a11.33 11.33 0 0 1 4.88 9.5 11.18 11.18 0 0 1 -2.47 7q-2.53 3.19-9.66 6.84a58.54 58.54 0 0 0 -7.72 4.4 11 11 0 0 0 -3 3.51h13.85z"/><path d="m126.71 248.2 11.46-.73q1.52 3.61 5.85 3.61a6.8 6.8 0 0 0 4.34-1.39 5.32 5.32 0 0 0 1.71-4.37 5.12 5.12 0 0 0 -1.71-4.27 6.46 6.46 0 0 0 -4.05-1.33 7.77 7.77 0 0 0 -5.95 2.59l-9.6-3.38 1.33-22.93h32.45v11.52h-7.44l-1-2.69h-15.78l-.38 8.74a18.58 18.58 0 0 1 10.1-2.66 18.05 18.05 0 0 1 11.84 3.83 12.84 12.84 0 0 1 4.69 10.51 13.85 13.85 0 0 1 -4.94 10.85q-5 4.35-13.84 4.34-7.78 0-12.88-3.29a13.42 13.42 0 0 1 -6.2-8.95z"/></g></g></svg>